<svg width="52" height="52" viewBox="0 0 52 52" fill="none" xmlns="http://www.w3.org/2000/svg">
<g clip-path="url(#clip0_13_44)">
<path d="M45.5 15.1667C45.5002 14.3634 45.3216 13.5701 44.9774 12.8443C44.6331 12.1185 44.1317 11.4783 43.5096 10.9702C42.8874 10.4621 42.16 10.0987 41.38 9.90638C40.6 9.71408 39.7871 9.69767 39 9.85833V8.66667C39.0005 7.8312 38.8077 7.00694 38.4367 6.25835C38.0658 5.50976 37.5266 4.85713 36.8616 4.3515C36.1965 3.84586 35.4234 3.50093 34.6029 3.34367C33.7824 3.18641 32.9366 3.22109 32.1317 3.445C31.7322 2.43106 31.0374 1.56052 30.1372 0.946245C29.2371 0.331973 28.1731 0.00230896 27.0833 0C24.4183 0 22.2083 1.92833 21.7533 4.46333C20.9619 4.28826 20.1414 4.29302 19.3521 4.47726C18.5628 4.6615 17.8249 5.02052 17.1928 5.52785C16.5607 6.03519 16.0505 6.67791 15.6999 7.40864C15.3492 8.13937 15.167 8.93949 15.1667 9.75V22.5117C14.43 21.84 13.52 21.3417 12.5233 21.0817L10.855 20.6267C9.05666 20.1283 7.17166 20.8217 6.10999 22.425C5.28666 23.66 5.24333 25.2633 5.78499 26.65L11.3317 40.5817C12.6697 43.9533 14.9903 46.8449 17.9924 48.881C20.9944 50.9171 24.5392 52.0038 28.1667 52C37.7433 52 45.5 44.2433 45.5 34.6667V15.1667ZM41.1667 34.6667C41.1667 41.8383 35.3383 47.6667 28.1667 47.6667C22.5117 47.6667 17.4417 44.2217 15.3617 38.9783L9.72833 24.8083L10.8767 25.1117C11.8733 25.3717 12.675 26.1083 13.0433 27.0617L15.1667 32.5H19.5V9.75C19.5 9.14333 19.9767 8.66667 20.5833 8.66667C21.19 8.66667 21.6667 9.14333 21.6667 9.75V26H26V5.41667C26 4.81 26.4767 4.33333 27.0833 4.33333C27.69 4.33333 28.1667 4.81 28.1667 5.41667V26H32.5V8.66667C32.5 8.06 32.9767 7.58333 33.5833 7.58333C34.19 7.58333 34.6667 8.06 34.6667 8.66667V26H39V15.1667C39 14.56 39.4767 14.0833 40.0833 14.0833C40.69 14.0833 41.1667 14.56 41.1667 15.1667V34.6667Z" fill="white"/>
</g>
<defs>
<clipPath id="clip0_13_44">
<rect width="52" height="52" fill="white"/>
</clipPath>
</defs>
</svg>
