<svg width="52" height="52" viewBox="0 0 52 52" fill="none" xmlns="http://www.w3.org/2000/svg">
<g clip-path="url(#clip0_13_52)">
<path d="M26 0C19.1044 0 12.4912 2.73928 7.61522 7.61522C2.73928 12.4912 0 19.1044 0 26C0 32.8956 2.73928 39.5088 7.61522 44.3848C12.4912 49.2607 19.1044 52 26 52C32.8956 52 39.5088 49.2607 44.3848 44.3848C49.2607 39.5088 52 32.8956 52 26C52 19.1044 49.2607 12.4912 44.3848 7.61522C39.5088 2.73928 32.8956 0 26 0ZM26 47.125C20.3973 47.125 15.0241 44.8993 11.0624 40.9376C7.10066 36.9759 4.875 31.6027 4.875 26C4.875 20.3973 7.10066 15.0241 11.0624 11.0624C15.0241 7.10066 20.3973 4.875 26 4.875C31.6027 4.875 36.9759 7.10066 40.9376 11.0624C44.8993 15.0241 47.125 20.3973 47.125 26C47.125 31.6027 44.8993 36.9759 40.9376 40.9376C36.9759 44.8993 31.6027 47.125 26 47.125ZM16.25 16.25H35.75V35.75H16.25V16.25Z" fill="#D41010"/>
</g>
<defs>
<clipPath id="clip0_13_52">
<rect width="52" height="52" fill="white"/>
</clipPath>
</defs>
</svg>
