<svg width="132" height="132" viewBox="0 0 132 132" fill="none" xmlns="http://www.w3.org/2000/svg">
<path d="M12.1687 127.875C5.36249 127.875 2.26874 122.925 5.36249 116.944L60.4312 8.6625C63.525 2.68125 68.475 2.68125 71.5687 8.6625L126.637 116.944C129.731 122.925 126.637 127.875 119.831 127.875H12.1687Z" fill="#FFCE31"/>
<path d="M57.3375 48.675L63.1125 86.8312C63.7312 90.5437 68.475 90.5437 69.0937 86.8312L74.6625 48.675C75.6937 33.825 56.3062 33.825 57.3375 48.675Z" fill="#231F20"/>
<path d="M66 110.962C70.7842 110.962 74.6625 107.084 74.6625 102.3C74.6625 97.5158 70.7842 93.6375 66 93.6375C61.2158 93.6375 57.3375 97.5158 57.3375 102.3C57.3375 107.084 61.2158 110.962 66 110.962Z" fill="#231F20"/>
</svg>
