<svg width="124" height="132" viewBox="0 0 124 132" fill="none" xmlns="http://www.w3.org/2000/svg">
<path d="M61.875 82.5C59.565 82.5 57.75 80.685 57.75 78.375V20.625C57.75 18.315 59.565 16.5 61.875 16.5C64.185 16.5 66 18.315 66 20.625V78.375C66 80.685 64.185 82.5 61.875 82.5Z" fill="#37517E"/>
<path d="M61.875 123.75C32.34 123.75 8.25 100.485 8.25 71.94C8.25 52.0575 20.295 33.66 38.94 25.08C41.0025 24.1725 43.4775 25.08 44.385 27.1425C45.2925 29.205 44.385 31.68 42.3225 32.5875C26.565 39.765 16.4175 55.1925 16.4175 71.94C16.4175 95.9475 36.795 115.5 61.7925 115.5C86.79 115.5 107.167 95.9475 107.167 71.94C107.167 55.275 97.02 39.765 81.2625 32.5875C80.2684 32.1373 79.4931 31.3115 79.1066 30.291C78.72 29.2705 78.7536 28.1383 79.2 27.1425C80.1075 25.08 82.5825 24.1725 84.645 25.08C103.29 33.5775 115.335 51.975 115.335 71.94C115.335 100.485 91.245 123.75 61.71 123.75H61.875Z" fill="#37517E"/>
</svg>
