<svg width="132" height="132" viewBox="0 0 132 132" fill="none" xmlns="http://www.w3.org/2000/svg">
<path d="M107.305 16.94L16.94 107.305C17.435 109.175 18.425 110.88 19.745 112.255C21.12 113.575 22.825 114.565 24.695 115.06L115.115 24.695C114.07 20.9 111.1 17.93 107.305 16.94ZM65.34 16.5L16.5 65.34V80.905L80.905 16.5H65.34ZM27.5 16.5C21.45 16.5 16.5 21.45 16.5 27.5V38.5L38.5 16.5H27.5ZM104.5 115.5C107.525 115.5 110.275 114.29 112.255 112.255C114.29 110.275 115.5 107.525 115.5 104.5V93.5L93.5 115.5H104.5ZM51.095 115.5H66.66L115.5 66.66V51.095L51.095 115.5Z" fill="#FFC700"/>
</svg>
