<svg width="132" height="132" viewBox="0 0 132 132" fill="none" xmlns="http://www.w3.org/2000/svg">
<path d="M82.5 38.5V60.5H88V71.5H71.5V27.5H82.5L66 5.5L49.5 27.5H60.5V71.5H44V60.115C47.85 58.08 50.6 54.175 50.6 49.5C50.6 42.845 45.155 37.4 38.5 37.4C31.845 37.4 26.4 42.845 26.4 49.5C26.4 54.175 29.15 58.08 33 60.115V71.5C33 77.605 37.895 82.5 44 82.5H60.5V99.275C56.595 101.31 53.9 105.325 53.9 110C53.9 113.209 55.1748 116.287 57.444 118.556C59.7132 120.825 62.7909 122.1 66 122.1C69.2091 122.1 72.2868 120.825 74.556 118.556C76.8252 116.287 78.1 113.209 78.1 110C78.1 105.325 75.405 101.31 71.5 99.275V82.5H88C94.105 82.5 99 77.605 99 71.5V60.5H104.5V38.5H82.5Z" fill="#37517E"/>
</svg>
