<svg width="52" height="52" viewBox="0 0 52 52" fill="none" xmlns="http://www.w3.org/2000/svg">
<path d="M41.2317 7.71334C37.6133 4.70167 33.1283 2.73 28.1667 2.275V6.63C31.915 7.04167 35.3383 8.53667 38.155 10.79L41.2317 7.71334ZM23.8333 6.63V2.275C18.8717 2.70833 14.3867 4.70167 10.7683 7.71334L13.845 10.79C16.7111 8.48166 20.176 7.03856 23.8333 6.63ZM10.79 13.845L7.71333 10.7683C4.70166 14.3867 2.73 18.8717 2.275 23.8333H6.63C7.04166 20.085 8.53666 16.6617 10.79 13.845ZM45.37 23.8333H49.725C49.27 18.8717 47.2983 14.3867 44.2867 10.7683L41.21 13.845C43.5183 16.7111 44.9614 20.176 45.37 23.8333ZM15.1667 26L22.62 29.38L26 36.8333L29.38 29.38L36.8333 26L29.38 22.62L26 15.1667L22.62 22.62L15.1667 26Z" fill="white"/>
<path d="M26 45.5C22.8003 45.4993 19.6503 44.7078 16.8304 43.1957C14.0104 41.6837 11.6079 39.4981 9.83666 36.8333H15.1667V32.5H2.16666V45.5H6.5V39.65C10.8117 45.8033 17.9183 49.8333 26 49.8333C36.5517 49.8333 45.5 42.965 48.62 33.4533L44.3733 32.4783C41.7083 40.04 34.4933 45.5 26 45.5Z" fill="white"/>
</svg>
