<svg width="132" height="132" viewBox="0 0 132 132" fill="none" xmlns="http://www.w3.org/2000/svg">
<g clip-path="url(#clip0_13_44)">
<path d="M115.5 38.5C115.5 36.4608 115.047 34.4471 114.173 32.6047C113.3 30.7622 112.027 29.1372 110.447 27.8474C108.868 26.5575 107.021 25.6351 105.042 25.147C103.062 24.6588 100.998 24.6172 99 25.025V22C99.0012 19.8792 98.5119 17.7869 97.5702 15.8866C96.6285 13.9863 95.26 12.3296 93.5717 11.0461C91.8834 9.76258 89.921 8.88698 87.8381 8.48778C85.7552 8.08859 83.6082 8.17662 81.565 8.745C80.5511 6.17116 78.7872 3.96131 76.5022 2.40201C74.2172 0.842701 71.5164 0.00586121 68.75 0C61.985 0 56.375 4.895 55.22 11.33C53.2111 10.8856 51.1281 10.8977 49.1245 11.3653C47.1209 11.833 45.2478 12.7444 43.6433 14.0322C42.0387 15.3201 40.7436 16.9516 39.8535 18.8066C38.9633 20.6615 38.5008 22.6925 38.5 24.75V57.145C36.63 55.44 34.32 54.175 31.79 53.515L27.555 52.36C22.99 51.095 18.205 52.855 15.51 56.925C13.42 60.06 13.31 64.13 14.685 67.65L28.765 103.015C32.1615 111.574 38.0524 118.914 45.673 124.083C53.2936 129.251 62.2919 132.01 71.5 132C95.81 132 115.5 112.31 115.5 88V38.5ZM104.5 88C104.5 106.205 89.705 121 71.5 121C57.145 121 44.275 112.255 38.995 98.945L24.695 62.975L27.61 63.745C30.14 64.405 32.175 66.275 33.11 68.695L38.5 82.5H49.5V24.75C49.5 23.21 50.71 22 52.25 22C53.79 22 55 23.21 55 24.75V66H66V13.75C66 12.21 67.21 11 68.75 11C70.29 11 71.5 12.21 71.5 13.75V66H82.5V22C82.5 20.46 83.71 19.25 85.25 19.25C86.79 19.25 88 20.46 88 22V66H99V38.5C99 36.96 100.21 35.75 101.75 35.75C103.29 35.75 104.5 36.96 104.5 38.5V88Z" fill="#37517E"/>
</g>
<defs>
<clipPath id="clip0_13_44">
<rect width="132" height="132" fill="white"/>
</clipPath>
</defs>
</svg>
