<svg width="132" height="132" viewBox="0 0 132 132" fill="none" xmlns="http://www.w3.org/2000/svg">
<path d="M104.665 19.58C95.48 11.935 84.095 6.92999 71.5 5.77499V16.83C81.015 17.875 89.705 21.67 96.855 27.39L104.665 19.58ZM60.5 16.83V5.77499C47.905 6.87499 36.52 11.935 27.335 19.58L35.145 27.39C42.4204 21.5304 51.2161 17.8671 60.5 16.83ZM27.39 35.145L19.58 27.335C11.935 36.52 6.93 47.905 5.775 60.5H16.83C17.875 50.985 21.67 42.295 27.39 35.145ZM115.17 60.5H126.225C125.07 47.905 120.065 36.52 112.42 27.335L104.61 35.145C110.47 42.4204 114.133 51.2161 115.17 60.5ZM38.5 66L57.42 74.58L66 93.5L74.58 74.58L93.5 66L74.58 57.42L66 38.5L57.42 57.42L38.5 66Z" fill="#37517E"/>
<path d="M66 115.5C57.8776 115.498 49.8816 113.489 42.7232 109.651C35.5649 105.812 29.4663 100.264 24.97 93.5H38.5V82.5H5.5V115.5H16.5V100.65C27.445 116.27 45.485 126.5 66 126.5C92.785 126.5 115.5 109.065 123.42 84.92L112.64 82.445C105.875 101.64 87.56 115.5 66 115.5Z" fill="#37517E"/>
</svg>
