<svg width="132" height="132" viewBox="0 0 132 132" fill="none" xmlns="http://www.w3.org/2000/svg">
<g clip-path="url(#clip0_13_52)">
<path d="M66 0C48.4957 0 31.7084 6.95355 19.331 19.331C6.95355 31.7084 0 48.4957 0 66C0 83.5043 6.95355 100.292 19.331 112.669C31.7084 125.046 48.4957 132 66 132C83.5043 132 100.292 125.046 112.669 112.669C125.046 100.292 132 83.5043 132 66C132 48.4957 125.046 31.7084 112.669 19.331C100.292 6.95355 83.5043 0 66 0ZM66 119.625C51.7778 119.625 38.138 113.975 28.0814 103.919C18.0248 93.862 12.375 80.2222 12.375 66C12.375 51.7778 18.0248 38.138 28.0814 28.0814C38.138 18.0248 51.7778 12.375 66 12.375C80.2222 12.375 93.862 18.0248 103.919 28.0814C113.975 38.138 119.625 51.7778 119.625 66C119.625 80.2222 113.975 93.862 103.919 103.919C93.862 113.975 80.2222 119.625 66 119.625ZM41.25 41.25H90.75V90.75H41.25V41.25Z" fill="#37517E"/>
</g>
<defs>
<clipPath id="clip0_13_52">
<rect width="132" height="132" fill="white"/>
</clipPath>
</defs>
</svg>
