<svg width="132" height="132" viewBox="0 0 132 132" fill="none" xmlns="http://www.w3.org/2000/svg">
<path d="M86.625 12.375C68.3513 12.375 53.625 27.1012 53.625 45.375C53.625 46.3444 53.7776 47.6561 53.8849 48.8565L18.5625 84.1747C16.6331 86.0917 15.1019 88.3713 14.057 90.8823C13.0121 93.3934 12.4741 96.0863 12.4741 98.8061C12.4741 101.526 13.0121 104.219 14.057 106.73C15.1019 109.241 16.6331 111.521 18.5625 113.437C20.4794 115.367 22.759 116.898 25.2701 117.943C27.7812 118.988 30.4741 119.526 33.1939 119.526C35.9137 119.526 38.6066 118.988 41.1177 117.943C43.6287 116.898 45.9083 115.367 47.8253 113.437L83.1435 78.1151C84.3398 78.2224 85.6598 78.375 86.625 78.375C104.899 78.375 119.625 63.6487 119.625 45.375C119.646 40.0579 118.315 34.8228 115.756 30.162L113.178 25.3935L109.313 29.2627L91.5214 46.9177L85.0781 40.4745L102.733 22.6875L106.611 18.8182L101.838 16.2401C97.1768 13.6826 91.9417 12.3525 86.625 12.375ZM86.625 20.625C88.6298 20.625 90.123 21.4912 91.905 21.9161L76.3125 37.5086L73.3425 40.4786L76.3125 43.3125L88.6875 55.6875L91.5255 58.6575L94.4873 55.6875L110.088 40.095C110.513 41.877 111.375 43.3702 111.375 45.375C111.375 59.2762 100.526 70.125 86.625 70.125C84.975 70.125 83.655 70.125 82.6238 69.8651L80.4375 69.2216L78.7628 70.9005L42.0214 107.642C36.9476 112.716 29.4401 112.716 24.3664 107.642L24.2344 107.51C19.2844 102.436 19.3256 95.0111 24.3581 89.9786L61.0995 53.2414L62.7784 51.5666L62.1266 49.3804C61.8791 48.3491 61.8709 47.0291 61.8709 45.3791C61.8709 31.4779 72.7196 20.6291 86.6209 20.6291L86.625 20.625Z" fill="#37517E"/>
</svg>
