<svg width="53" height="52" viewBox="0 0 53 52" fill="none" xmlns="http://www.w3.org/2000/svg">
<path d="M37.5833 21.6667C37.5833 25.2135 35.8825 28.3617 33.2413 30.3398L35.8413 33.8065C37.7287 32.3952 39.2606 30.5629 40.3153 28.4554C41.37 26.3479 41.9183 24.0233 41.9167 21.6667H37.5833ZM26.75 10.8333C29.6232 10.8333 32.3787 11.9747 34.4103 14.0063C36.442 16.038 37.5833 18.7935 37.5833 21.6667H41.9167C41.9167 17.6442 40.3187 13.7865 37.4744 10.9422C34.6301 8.09791 30.7724 6.5 26.75 6.5V10.8333ZM15.9167 21.6667C15.9167 18.7935 17.058 16.038 19.0897 14.0063C21.1213 11.9747 23.8768 10.8333 26.75 10.8333V6.5C22.7275 6.5 18.8698 8.09791 16.0255 10.9422C13.1812 13.7865 11.5833 17.6442 11.5833 21.6667H15.9167ZM20.2587 30.3398C18.9095 29.3322 17.8143 28.0233 17.0605 26.5175C16.3066 25.0117 15.915 23.3506 15.9167 21.6667H11.5833C11.5816 24.0233 12.1299 26.3479 13.1846 28.4554C14.2393 30.5629 15.7713 32.3952 17.6587 33.8065L20.2587 30.3398ZM24.5768 42.7765C24.5081 39.4728 23.8255 36.2106 22.564 33.1565L18.56 34.814C19.613 37.3642 20.1872 40.0942 20.2457 42.8675L24.5768 42.7765ZM29.6577 41.6238C28.7549 42.0754 27.7594 42.3104 26.75 42.3104C25.7406 42.3104 24.7451 42.0754 23.8423 41.6238L21.9053 45.5C23.4095 46.2521 25.0682 46.6436 26.75 46.6436C28.4318 46.6436 30.0904 46.2521 31.5947 45.5L29.6577 41.6238ZM30.936 33.1587C29.674 36.212 28.9907 39.4734 28.921 42.7765L33.2543 42.8675C33.3128 40.0942 33.887 37.3642 34.94 34.814L30.936 33.1587ZM31.5947 45.5C32.0848 45.2539 32.4984 44.8787 32.7909 44.4147C33.0833 43.9508 33.2436 43.4158 33.2543 42.8675L28.921 42.7765C28.9269 42.5354 28.9987 42.3006 29.1286 42.0974C29.2584 41.8943 29.4414 41.7305 29.6577 41.6238L31.5947 45.5ZM20.2457 42.8675C20.2673 43.9595 20.8827 44.9887 21.9053 45.5L23.8423 41.6238C24.0586 41.7305 24.2415 41.8943 24.3714 42.0974C24.5012 42.3006 24.573 42.5354 24.579 42.7765L20.2457 42.8675ZM17.6587 33.8065C17.9837 34.0535 18.1765 34.1965 18.3108 34.3048C18.4473 34.4175 18.4213 34.4132 18.3607 34.3352L21.784 31.6788C21.3788 31.1545 20.7505 30.7082 20.2587 30.3398L17.6587 33.8065ZM22.564 33.1565C22.395 32.747 22.1805 32.188 21.784 31.6788L18.3607 34.3352C18.3325 34.2962 18.326 34.2767 18.3542 34.3352L18.43 34.5042L18.56 34.814L22.564 33.1565ZM33.2413 30.3398C32.7495 30.7082 32.119 31.1567 31.7138 31.6788L35.1393 34.3352C35.0808 34.411 35.0527 34.4175 35.1892 34.307C35.3235 34.1965 35.5141 34.0535 35.8413 33.8087L33.2413 30.3398ZM34.94 34.814L35.07 34.5042L35.1458 34.3352C35.174 34.2767 35.1675 34.2962 35.1393 34.3352L31.7138 31.6788C31.3173 32.1902 31.105 32.747 30.936 33.1587L34.94 34.814Z" fill="#37517E"/>
<path d="M33.2327 34.6667C31.3144 35.9503 29.0582 36.6356 26.75 36.6356C24.4418 36.6356 22.1856 35.9503 20.2673 34.6667" stroke="#37517E" stroke-width="4.33333"/>
</svg>
