<svg width="132" height="132" viewBox="0 0 132 132" fill="none" xmlns="http://www.w3.org/2000/svg">
<g clip-path="url(#clip0_13_48)">
<path d="M122.672 129.184C122.35 130.018 121.782 130.734 121.043 131.237C120.304 131.74 119.43 132.006 118.536 132C118.008 132.088 117.48 132.088 116.952 132L66 110.528L14.96 132C14.4215 132.211 13.8468 132.313 13.2687 132.302C12.6905 132.29 12.1204 132.164 11.5908 131.932C11.0612 131.7 10.5825 131.366 10.1822 130.949C9.78184 130.532 9.46766 130.04 9.2576 129.501L9.24 129.448C8.93924 128.879 8.76694 128.251 8.73525 127.608C8.70357 126.966 8.81326 126.324 9.0566 125.728C9.29994 125.132 9.671 124.597 10.1436 124.16C10.6162 123.723 11.1789 123.396 11.792 123.2L54.472 105.6L11.792 88C11.2129 87.824 10.6763 87.5303 10.2158 87.1374C9.75531 86.7445 9.38085 86.2609 9.11583 85.7166C8.85081 85.1724 8.70093 84.5794 8.67556 83.9746C8.65019 83.3698 8.74988 82.7663 8.96839 82.2018C9.18691 81.6373 9.51954 81.124 9.9455 80.6939C10.3715 80.2639 10.8816 79.9263 11.4439 79.7024C12.0063 79.4784 12.6088 79.3729 13.2138 79.3925C13.8188 79.412 14.4133 79.5562 14.96 79.816L66 101.024L117.04 79.816C117.587 79.5562 118.181 79.412 118.786 79.3925C119.391 79.3729 119.994 79.4784 120.556 79.7024C121.118 79.9263 121.629 80.2639 122.054 80.6939C122.48 81.124 122.813 81.6373 123.032 82.2018C123.25 82.7663 123.35 83.3698 123.324 83.9746C123.299 84.5794 123.149 85.1724 122.884 85.7166C122.619 86.2609 122.245 86.7445 121.784 87.1374C121.324 87.5303 120.787 87.824 120.208 88L77.44 105.6L120.12 123.2C120.698 123.402 121.228 123.722 121.675 124.14C122.122 124.558 122.478 125.065 122.718 125.628C122.958 126.192 123.078 126.799 123.07 127.411C123.062 128.023 122.927 128.627 122.672 129.184ZM105.6 37.224V41.184C105.581 43.0579 104.965 44.8769 103.84 46.376C98.9187 51.8112 93.626 56.8981 88 61.6V71.808C88.0063 72.7018 87.7402 73.5764 87.2371 74.3153C86.7341 75.0541 86.0179 75.6222 85.184 75.944L66.176 83.6H65.56L46.464 75.944C45.6959 75.5685 45.0537 74.9774 44.6161 74.2429C44.1786 73.5084 43.9644 72.6623 44 71.808V61.6C38.3134 56.9044 32.9618 51.8173 27.984 46.376C26.9221 44.8555 26.3677 43.0383 26.4 41.184V37.224C27.1118 27.7649 31.123 18.8562 37.7333 12.0528C44.3437 5.24951 53.1333 0.983703 62.568 0L69.168 0C78.6565 0.908452 87.5181 5.14326 94.1853 11.9554C100.852 18.7676 104.896 27.7181 105.6 37.224ZM52.8 35.2C52.8 32.8661 51.8729 30.6278 50.2225 28.9775C48.5722 27.3271 46.3339 26.4 44 26.4C41.6661 26.4 39.4278 27.3271 37.7775 28.9775C36.1271 30.6278 35.2 32.8661 35.2 35.2C35.2 37.5339 36.1271 39.7722 37.7775 41.4225C39.4278 43.0729 41.6661 44 44 44C46.3339 44 48.5722 43.0729 50.2225 41.4225C51.8729 39.7722 52.8 37.5339 52.8 35.2ZM61.6 61.6C61.6 60.433 61.1364 59.3139 60.3113 58.4887C59.4861 57.6636 58.367 57.2 57.2 57.2C56.033 57.2 54.9139 57.6636 54.0887 58.4887C53.2636 59.3139 52.8 60.433 52.8 61.6V66C52.8 67.167 53.2636 68.2861 54.0887 69.1113C54.9139 69.9364 56.033 70.4 57.2 70.4C58.367 70.4 59.4861 69.9364 60.3113 69.1113C61.1364 68.2861 61.6 67.167 61.6 66V61.6ZM79.2 61.6C79.2 60.433 78.7364 59.3139 77.9113 58.4887C77.0861 57.6636 75.9669 57.2 74.8 57.2C73.633 57.2 72.5139 57.6636 71.6887 58.4887C70.8636 59.3139 70.4 60.433 70.4 61.6V66C70.4 67.167 70.8636 68.2861 71.6887 69.1113C72.5139 69.9364 73.633 70.4 74.8 70.4C75.9669 70.4 77.0861 69.9364 77.9113 69.1113C78.7364 68.2861 79.2 67.167 79.2 66V61.6ZM96.8 35.2C96.8 32.8661 95.8729 30.6278 94.2225 28.9775C92.5722 27.3271 90.3339 26.4 88 26.4C85.6661 26.4 83.4278 27.3271 81.7775 28.9775C80.1271 30.6278 79.2 32.8661 79.2 35.2C79.2 37.5339 80.1271 39.7722 81.7775 41.4225C83.4278 43.0729 85.6661 44 88 44C90.3339 44 92.5722 43.0729 94.2225 41.4225C95.8729 39.7722 96.8 37.5339 96.8 35.2Z" fill="#D32F2F"/>
</g>
<defs>
<clipPath id="clip0_13_48">
<rect width="132" height="132" fill="white"/>
</clipPath>
</defs>
</svg>
