<svg width="52" height="52" viewBox="0 0 52 52" fill="none" xmlns="http://www.w3.org/2000/svg">
<path d="M19.5 34.6667C20.1139 34.6667 20.6288 34.4587 21.0448 34.0427C21.4608 33.6267 21.6681 33.1124 21.6666 32.5V19.5C21.6666 18.8861 21.4587 18.3719 21.0427 17.9573C20.6266 17.5428 20.1124 17.3348 19.5 17.3333C18.8875 17.3319 18.3733 17.5399 17.9573 17.9573C17.5413 18.3748 17.3333 18.889 17.3333 19.5V32.5C17.3333 33.1139 17.5413 33.6288 17.9573 34.0448C18.3733 34.4608 18.8875 34.6681 19.5 34.6667ZM28.5458 32.9875L36.9958 27.3542C37.5014 27.0292 37.7541 26.5778 37.7541 26C37.7541 25.4222 37.5014 24.9708 36.9958 24.6458L28.5458 19.0125C28.0042 18.6514 27.4444 18.6239 26.8666 18.9302C26.2889 19.2364 26 19.7152 26 20.3667V31.6333C26 32.2833 26.2889 32.7622 26.8666 33.0698C27.4444 33.3775 28.0042 33.3501 28.5458 32.9875ZM26 47.6667C23.0028 47.6667 20.1861 47.0976 17.55 45.9593C14.9139 44.8211 12.6208 43.2777 10.6708 41.3292C8.72082 39.3806 7.17743 37.0876 6.04065 34.45C4.90387 31.8124 4.33476 28.9958 4.33332 26C4.33187 23.0042 4.90098 20.1876 6.04065 17.55C7.18032 14.9124 8.7237 12.6194 10.6708 10.6708C12.6179 8.72228 14.911 7.17889 17.55 6.04067C20.189 4.90245 23.0056 4.33334 26 4.33334C28.9943 4.33334 31.811 4.90245 34.45 6.04067C37.089 7.17889 39.382 8.72228 41.3292 10.6708C43.2763 12.6194 44.8204 14.9124 45.9615 17.55C47.1026 20.1876 47.671 23.0042 47.6667 26C47.6623 28.9958 47.0932 31.8124 45.9593 34.45C44.8254 37.0876 43.282 39.3806 41.3292 41.3292C39.3763 43.2777 37.0832 44.8218 34.45 45.9615C31.8168 47.1012 29.0001 47.6696 26 47.6667ZM26 43.3333C30.8389 43.3333 34.9375 41.6542 38.2958 38.2958C41.6541 34.9375 43.3333 30.8389 43.3333 26C43.3333 21.1611 41.6541 17.0625 38.2958 13.7042C34.9375 10.3458 30.8389 8.66667 26 8.66667C21.1611 8.66667 17.0625 10.3458 13.7041 13.7042C10.3458 17.0625 8.66665 21.1611 8.66665 26C8.66665 30.8389 10.3458 34.9375 13.7041 38.2958C17.0625 41.6542 21.1611 43.3333 26 43.3333Z" fill="white"/>
</svg>
