<svg width="132" height="132" viewBox="0 0 132 132" fill="none" xmlns="http://www.w3.org/2000/svg">
<path d="M49.5 88C51.0583 88 52.3655 87.472 53.4215 86.416C54.4775 85.36 55.0037 84.0547 55 82.5V49.5C55 47.9417 54.472 46.6363 53.416 45.584C52.36 44.5317 51.0547 44.0037 49.5 44C47.9453 43.9963 46.64 44.5243 45.584 45.584C44.528 46.6437 44 47.949 44 49.5V82.5C44 84.0583 44.528 85.3655 45.584 86.4215C46.64 87.4775 47.9453 88.0037 49.5 88ZM72.4625 83.7375L93.9125 69.4375C95.1958 68.6125 95.8375 67.4667 95.8375 66C95.8375 64.5333 95.1958 63.3875 93.9125 62.5625L72.4625 48.2625C71.0875 47.3458 69.6667 47.2762 68.2 48.0535C66.7333 48.8308 66 50.0463 66 51.7V80.3C66 81.95 66.7333 83.1655 68.2 83.9465C69.6667 84.7275 71.0875 84.6578 72.4625 83.7375ZM66 121C58.3917 121 51.2417 119.555 44.55 116.666C37.8583 113.777 32.0375 109.859 27.0875 104.913C22.1375 99.9662 18.2197 94.1453 15.334 87.45C12.4483 80.7547 11.0037 73.6047 11 66C10.9963 58.3953 12.441 51.2453 15.334 44.55C18.227 37.8547 22.1448 32.0338 27.0875 27.0875C32.0302 22.1412 37.851 18.2233 44.55 15.334C51.249 12.4447 58.399 11 66 11C73.601 11 80.751 12.4447 87.45 15.334C94.149 18.2233 99.9698 22.1412 104.913 27.0875C109.855 32.0338 113.775 37.8547 116.671 44.55C119.568 51.2453 121.011 58.3953 121 66C120.989 73.6047 119.544 80.7547 116.666 87.45C113.788 94.1453 109.87 99.9662 104.913 104.913C99.9552 109.859 94.1343 113.779 87.45 116.672C80.7657 119.565 73.6157 121.007 66 121ZM66 110C78.2833 110 88.6875 105.738 97.2125 97.2125C105.737 88.6875 110 78.2833 110 66C110 53.7167 105.737 43.3125 97.2125 34.7875C88.6875 26.2625 78.2833 22 66 22C53.7167 22 43.3125 26.2625 34.7875 34.7875C26.2625 43.3125 22 53.7167 22 66C22 78.2833 26.2625 88.6875 34.7875 97.2125C43.3125 105.738 53.7167 110 66 110Z" fill="#37517E"/>
</svg>
