<svg width="132" height="132" viewBox="0 0 132 132" fill="none" xmlns="http://www.w3.org/2000/svg">
<path d="M9.89999 117.831L66 20.6559L122.11 117.831H9.89999Z" fill="#FCC21B"/>
<path d="M131.041 119.553L68.9803 12.0656C68.3616 11.0034 67.2272 10.3434 66 10.3434C64.7728 10.3434 63.6384 11.0034 63.03 12.0656L0.959058 119.553C0.340308 120.615 0.340308 121.925 0.959058 122.997C1.57781 124.059 2.71218 124.709 3.93937 124.709H128.061C129.288 124.709 130.422 124.059 131.041 122.997C131.649 121.925 131.649 120.615 131.041 119.553ZM9.9 117.831L66 20.6559L122.11 117.831H9.9Z" fill="#2F2F2F"/>
<path d="M60.9675 85.8103H71.0325C71.4038 85.8103 71.7028 85.5731 71.7234 85.2638L74.4666 45.7978C74.4769 45.6328 74.415 45.4884 74.2809 45.3647C74.1406 45.2435 73.961 45.1775 73.7756 45.1791H58.2244C58.0284 45.1791 57.8428 45.2513 57.7191 45.3647C57.6583 45.4189 57.6103 45.4858 57.5782 45.5607C57.5461 45.6355 57.5308 45.7164 57.5334 45.7978L60.2869 85.2638C60.2972 85.5628 60.5963 85.8103 60.9675 85.8103ZM57.8634 106.549C57.8634 105.095 58.0697 103.867 58.4925 102.867C58.905 101.857 59.4825 101.042 60.225 100.423C60.9675 99.8044 61.8338 99.3506 62.8444 99.0722C63.8447 98.7937 64.9172 98.6494 66.0722 98.6494C67.155 98.6494 68.1863 98.7937 69.1659 99.0722C70.1456 99.3506 71.0016 99.8044 71.7338 100.423C72.4763 101.042 73.0641 101.846 73.4972 102.867C73.9303 103.867 74.1469 105.095 74.1469 106.549C74.1469 107.941 73.9303 109.137 73.4972 110.117C73.0641 111.107 72.4763 111.932 71.7338 112.582C71.0016 113.231 70.1456 113.706 69.1659 113.994C68.1863 114.283 67.155 114.438 66.0722 114.438C64.9275 114.438 63.855 114.293 62.8444 113.994C61.8338 113.695 60.9675 113.231 60.225 112.582C59.4594 111.91 58.8654 111.065 58.4925 110.117C58.0697 109.127 57.8634 107.941 57.8634 106.549Z" fill="#2F2F2F"/>
</svg>
