<svg width="132" height="132" viewBox="0 0 132 132" fill="none" xmlns="http://www.w3.org/2000/svg">
<path d="M61.875 57.75H66V94.875H70.125M119.625 66C119.625 80.2222 113.975 93.862 103.919 103.919C93.862 113.975 80.2222 119.625 66 119.625C51.7778 119.625 38.138 113.975 28.0814 103.919C18.0248 93.862 12.375 80.2222 12.375 66C12.375 51.7778 18.0248 38.138 28.0814 28.0814C38.138 18.0248 51.7778 12.375 66 12.375C80.2222 12.375 93.862 18.0248 103.919 28.0814C113.975 38.138 119.625 51.7778 119.625 66Z" stroke="#37517E" stroke-width="3.25" stroke-linecap="round" stroke-linejoin="round"/>
<path d="M70.125 39.1875C70.125 40.2815 69.6904 41.3307 68.9168 42.1043C68.1432 42.8779 67.094 43.3125 66 43.3125C64.906 43.3125 63.8568 42.8779 63.0832 42.1043C62.3096 41.3307 61.875 40.2815 61.875 39.1875C61.875 38.0935 62.3096 37.0443 63.0832 36.2707C63.8568 35.4971 64.906 35.0625 66 35.0625C67.094 35.0625 68.1432 35.4971 68.9168 36.2707C69.6904 37.0443 70.125 38.0935 70.125 39.1875Z" fill="#37517E" stroke="#37517E" stroke-width="1.625"/>
</svg>
