<svg width="52" height="52" viewBox="0 0 52 52" fill="none" xmlns="http://www.w3.org/2000/svg">
<path fill-rule="evenodd" clip-rule="evenodd" d="M3.04028 26C3.04028 19.9107 5.45925 14.0708 9.76503 9.765C14.0708 5.45922 19.9107 3.04025 26 3.04025C32.0893 3.04025 37.9292 5.45922 42.235 9.765C46.5408 14.0708 48.9598 19.9107 48.9598 26C48.9598 32.0893 46.5408 37.9292 42.235 42.235C37.9292 46.5408 32.0893 48.9597 26 48.9597C19.9107 48.9597 14.0708 46.5408 9.76503 42.235C5.45925 37.9292 3.04028 32.0893 3.04028 26ZM26 6.33359C20.7842 6.33359 15.7819 8.40558 12.0938 12.0937C8.40561 15.7819 6.33362 20.7841 6.33362 26C6.33362 31.2158 8.40561 36.2181 12.0938 39.9062C15.7819 43.5944 20.7842 45.6664 26 45.6664C31.2159 45.6664 36.2181 43.5944 39.9063 39.9062C43.5944 36.2181 45.6664 31.2158 45.6664 26C45.6664 20.7841 43.5944 15.7819 39.9063 12.0937C36.2181 8.40558 31.2159 6.33359 26 6.33359ZM34.1606 17.8429C34.4855 18.168 34.668 18.6088 34.668 19.0684C34.668 19.528 34.4855 19.9688 34.1606 20.2939L28.4509 26L34.1606 31.7061C34.486 32.0316 34.6689 32.473 34.6689 32.9333C34.6689 33.3936 34.486 33.835 34.1606 34.1605C33.8351 34.486 33.3936 34.6688 32.9334 34.6688C32.4731 34.6688 32.0316 34.486 31.7062 34.1605L26 28.4509L20.2939 34.1605C20.1327 34.3217 19.9414 34.4495 19.7308 34.5367C19.5203 34.624 19.2946 34.6688 19.0667 34.6688C18.8388 34.6688 18.6131 34.624 18.4025 34.5367C18.192 34.4495 18.0006 34.3217 17.8395 34.1605C17.6783 33.9994 17.5505 33.808 17.4633 33.5975C17.3761 33.3869 17.3312 33.1612 17.3312 32.9333C17.3312 32.7054 17.3761 32.4797 17.4633 32.2692C17.5505 32.0586 17.6783 31.8673 17.8395 31.7061L23.5491 26L17.8395 20.2939C17.514 19.9684 17.3312 19.5269 17.3312 19.0667C17.3312 18.6064 17.514 18.1649 17.8395 17.8395C18.165 17.514 18.6064 17.3311 19.0667 17.3311C19.527 17.3311 19.9684 17.514 20.2939 17.8395L26 23.5491L31.7062 17.8395C31.8672 17.678 32.0584 17.55 32.269 17.4626C32.4796 17.3752 32.7054 17.3302 32.9334 17.3302C33.1613 17.3302 33.3871 17.3752 33.5977 17.4626C33.8083 17.55 33.9995 17.6815 34.1606 17.8429Z" fill="#37517E"/>
</svg>
