<svg width="132" height="132" viewBox="0 0 132 132" fill="none" xmlns="http://www.w3.org/2000/svg">
<path d="M92.004 33C92.004 31.906 91.5694 30.8568 90.7958 30.0832C90.0223 29.3096 88.973 28.875 87.879 28.875C86.785 28.875 85.7358 29.3096 84.9622 30.0832C84.1886 30.8568 83.754 31.906 83.754 33V38.6265C77.6824 34.4143 70.3112 32.4972 62.9567 33.2175C55.6021 33.9378 48.743 37.2487 43.604 42.559C31.3005 55.154 31.3005 75.5425 43.604 88.1375C46.5114 91.138 49.9921 93.5237 53.8393 95.153C57.6866 96.7822 61.822 97.6217 66 97.6217C70.1781 97.6217 74.3135 96.7822 78.1607 95.153C82.008 93.5237 85.4887 91.138 88.396 88.1375C91.8094 84.6299 94.3896 80.399 95.9453 75.7585C97.5011 71.1179 97.9924 66.1868 97.383 61.3305C97.3173 60.7924 97.1462 60.2725 96.8796 59.8006C96.6129 59.3286 96.256 58.9137 95.829 58.5797C95.402 58.2457 94.9135 57.9991 94.3912 57.8539C93.8689 57.7087 93.3231 57.6678 92.785 57.7335C92.2469 57.7992 91.7271 57.9703 91.2551 58.2369C90.7831 58.5036 90.3683 58.8606 90.0342 59.2875C89.7002 59.7145 89.4536 60.2031 89.3084 60.7254C89.1632 61.2476 89.1223 61.7934 89.188 62.3315C90.068 69.4815 87.813 76.923 82.4945 82.3735C80.3556 84.5874 77.7929 86.3481 74.9591 87.5506C72.1253 88.7531 69.0784 89.3728 66 89.3728C62.9216 89.3728 59.8748 88.7531 57.041 87.5506C54.2072 86.3481 51.6444 84.5874 49.5055 82.3735C40.3315 72.9795 40.3315 57.717 49.5055 48.3285C52.9115 44.8042 57.3569 42.4638 62.1901 41.6501C67.0232 40.8365 71.9899 41.5926 76.362 43.8075H73.293C72.199 43.8075 71.1498 44.2421 70.3762 45.0157C69.6026 45.7893 69.168 46.8385 69.168 47.9325C69.168 49.0265 69.6026 50.0757 70.3762 50.8493C71.1498 51.6229 72.199 52.0575 73.293 52.0575H87.8735C88.9675 52.0575 90.0168 51.6229 90.7903 50.8493C91.5639 50.0757 91.9985 49.0265 91.9985 47.9325L92.004 33Z" fill="#37517E"/>
<path fill-rule="evenodd" clip-rule="evenodd" d="M65.6865 6.875C52.987 6.875 43.0375 6.875 35.2715 7.92C27.3295 8.987 21.0595 11.22 16.137 16.137C11.2145 21.0595 8.987 27.3295 7.92 35.277C6.875 43.0375 6.875 52.987 6.875 65.6865V66.3135C6.875 79.013 6.875 88.9625 7.92 96.7285C8.987 104.67 11.22 110.94 16.137 115.863C21.0595 120.785 27.3295 123.013 35.277 124.08C43.0375 125.125 52.987 125.125 65.6865 125.125H66.3135C79.013 125.125 88.9625 125.125 96.7285 124.08C104.67 123.013 110.94 120.78 115.863 115.863C120.785 110.94 123.013 104.67 124.08 96.723C125.125 88.9625 125.125 79.013 125.125 66.3135V65.6865C125.125 52.987 125.125 43.0375 124.08 35.2715C123.013 27.3295 120.78 21.0595 115.863 16.137C110.94 11.2145 104.67 8.987 96.723 7.92C88.9625 6.875 79.013 6.875 66.3135 6.875H65.6865ZM21.9725 21.9725C25.1075 18.8375 29.3425 17.039 36.377 16.093C43.527 15.136 52.921 15.125 66 15.125C79.079 15.125 88.473 15.136 95.623 16.093C102.657 17.039 106.898 18.843 110.033 21.9725C113.162 25.1075 114.961 29.3425 115.907 36.377C116.864 43.527 116.875 52.921 116.875 66C116.875 79.079 116.864 88.473 115.907 95.623C114.961 102.657 113.157 106.898 110.027 110.033C106.892 113.162 102.657 114.961 95.623 115.907C88.473 116.864 79.079 116.875 66 116.875C52.921 116.875 43.527 116.864 36.377 115.907C29.3425 114.961 25.102 113.157 21.967 110.027C18.8375 106.892 17.039 102.657 16.093 95.623C15.136 88.473 15.125 79.079 15.125 66C15.125 52.921 15.136 43.527 16.093 36.377C17.039 29.3425 18.843 25.1075 21.9725 21.9725Z" fill="#37517E"/>
</svg>
