<svg width="132" height="132" viewBox="0 0 132 132" fill="none" xmlns="http://www.w3.org/2000/svg">
<path fill-rule="evenodd" clip-rule="evenodd" d="M11 66C11 40.073 11 27.1095 19.052 19.052C27.115 11 40.073 11 66 11C91.927 11 104.89 11 112.942 19.052C121 27.115 121 40.073 121 66C121 91.927 121 104.89 112.942 112.942C104.896 121 91.927 121 66 121C40.073 121 27.1095 121 19.052 112.942C11 104.896 11 91.927 11 66ZM87.6425 30.756C88.4013 31.0652 89.0509 31.5933 89.5083 32.2732C89.9658 32.953 90.2104 33.7536 90.211 34.573V49.5055C90.211 50.5995 89.7764 51.6487 89.0028 52.4223C88.2292 53.1959 87.18 53.6305 86.086 53.6305H71.5C70.6881 53.6309 69.8942 53.3918 69.2176 52.943C68.541 52.4943 68.0119 51.8558 67.6966 51.1077C67.3812 50.3596 67.2937 49.535 67.4449 48.7373C67.5961 47.9397 67.9793 47.2044 68.5465 46.6235L72.7375 42.3335C68.6896 41.0898 64.3764 40.9911 60.2759 42.0482C56.1753 43.1054 52.4475 45.2772 49.5055 48.323C40.3315 57.7115 40.3315 72.9795 49.5055 82.368C51.6444 84.5819 54.2071 86.3426 57.0409 87.5451C59.8747 88.7476 62.9216 89.3673 66 89.3673C69.0784 89.3673 72.1253 88.7476 74.9591 87.5451C77.7929 86.3426 80.3556 84.5819 82.4945 82.368C86.1056 78.6627 88.4342 73.8977 89.1385 68.772C89.4575 66.473 91.2835 64.537 93.6045 64.537C95.8375 64.537 97.6855 66.3245 97.471 68.5465C96.7709 75.9212 93.5685 82.8344 88.396 88.1375C85.4886 91.138 82.008 93.5237 78.1607 95.1529C74.3134 96.7822 70.178 97.6217 66 97.6217C61.822 97.6217 57.6865 96.7822 53.8393 95.1529C49.992 93.5237 46.5114 91.138 43.604 88.1375C31.3005 75.5425 31.3005 55.154 43.604 42.559C48.0931 37.9255 53.9087 34.7983 60.2495 33.6084C66.5902 32.4185 73.1439 33.2243 79.0075 35.915L83.1325 31.691C83.706 31.1043 84.4415 30.702 85.2448 30.5354C86.0482 30.3689 86.883 30.4457 87.6425 30.756Z" fill="#37517E"/>
</svg>
