<svg width="49" height="52" viewBox="0 0 49 52" fill="none" xmlns="http://www.w3.org/2000/svg">
<path d="M24.375 32.5C23.465 32.5 22.75 31.785 22.75 30.875V8.125C22.75 7.215 23.465 6.5 24.375 6.5C25.285 6.5 26 7.215 26 8.125V30.875C26 31.785 25.285 32.5 24.375 32.5Z" fill="white"/>
<path d="M24.375 48.75C12.74 48.75 3.25 39.585 3.25 28.34C3.25 20.5075 7.995 13.26 15.34 9.88C16.1525 9.5225 17.1275 9.88 17.485 10.6925C17.8425 11.505 17.485 12.48 16.6725 12.8375C10.465 15.665 6.4675 21.7425 6.4675 28.34C6.4675 37.7975 14.495 45.5 24.3425 45.5C34.19 45.5 42.2175 37.7975 42.2175 28.34C42.2175 21.775 38.22 15.665 32.0125 12.8375C31.6209 12.6602 31.3155 12.3349 31.1632 11.9328C31.0109 11.5308 31.0241 11.0848 31.2 10.6925C31.5575 9.88 32.5325 9.5225 33.345 9.88C40.69 13.2275 45.435 20.475 45.435 28.34C45.435 39.585 35.945 48.75 24.31 48.75H24.375Z" fill="white"/>
</svg>
