<svg width="52" height="52" viewBox="0 0 52 52" fill="none" xmlns="http://www.w3.org/2000/svg">
<path d="M34.125 4.875C26.9263 4.875 21.125 10.6763 21.125 17.875C21.125 18.2569 21.1851 18.7736 21.2274 19.2465L7.3125 33.1598C6.55243 33.9149 5.94921 34.8129 5.53759 35.8021C5.12596 36.7913 4.91405 37.8522 4.91405 38.9236C4.91405 39.9951 5.12596 41.0559 5.53759 42.0451C5.94921 43.0343 6.55243 43.9324 7.3125 44.6875C8.06765 45.4476 8.96568 46.0508 9.95488 46.4624C10.9441 46.874 12.0049 47.086 13.0764 47.086C14.1478 47.086 15.2087 46.874 16.1979 46.4624C17.1871 46.0508 18.0851 45.4476 18.8402 44.6875L32.7535 30.7726C33.2247 30.8149 33.7447 30.875 34.125 30.875C41.3237 30.875 47.125 25.0738 47.125 17.875C47.1334 15.7804 46.6088 13.7181 45.6007 11.882L44.5851 10.0035L43.0625 11.5278L36.0539 18.4828L33.5156 15.9445L40.4706 8.9375L41.9981 7.41325L40.118 6.39763C38.2818 5.39011 36.2195 4.86615 34.125 4.875ZM34.125 8.125C34.9147 8.125 35.503 8.46625 36.205 8.63363L30.0625 14.7761L28.8925 15.9461L30.0625 17.0625L34.9375 21.9375L36.0555 23.1075L37.2222 21.9375L43.368 15.795C43.5354 16.497 43.875 17.0853 43.875 17.875C43.875 23.3513 39.6012 27.625 34.125 27.625C33.475 27.625 32.955 27.625 32.5487 27.5226L31.6875 27.2691L31.0278 27.9305L16.5539 42.4044C14.5551 44.4031 11.5976 44.4031 9.59887 42.4044L9.54687 42.3524C7.59687 40.3536 7.61312 37.4286 9.59562 35.4461L24.0695 20.9739L24.7309 20.3141L24.4741 19.4529C24.3766 19.0466 24.3734 18.5266 24.3734 17.8766C24.3734 12.4004 28.6471 8.12663 34.1234 8.12663L34.125 8.125Z" fill="white"/>
</svg>
