<svg width="132" height="132" viewBox="0 0 132 132" fill="none" xmlns="http://www.w3.org/2000/svg">
<path d="M9.72767 128.333C2.97367 128.333 -0.00366085 123.427 3.10567 117.432L60.3387 7.23067C63.4517 1.23567 68.5447 1.23567 71.6577 7.23067L128.891 117.436C132.007 123.427 129.026 128.333 122.272 128.333H9.72767Z" fill="#FFCC4D"/>
<path d="M57.1377 106.161C57.1396 103.81 58.0748 101.555 59.7379 99.8926C61.401 98.2303 63.6559 97.296 66.0073 97.295C68.3582 97.2969 70.6121 98.2317 72.2744 99.8939C73.9367 101.556 74.8714 103.81 74.8733 106.161C74.8724 108.512 73.9381 110.767 72.2757 112.43C70.6133 114.094 68.3588 115.029 66.0073 115.031C63.6553 115.03 61.3998 114.095 59.7366 112.432C58.0734 110.769 57.1387 108.513 57.1377 106.161ZM57.8197 39.0867C57.8197 34.3127 61.3433 31.3573 66.0037 31.3573C70.554 31.3573 74.1913 34.4263 74.1913 39.0867V82.8593C74.1913 87.5197 70.554 90.5887 66.0037 90.5887C61.3433 90.5887 57.8197 87.6297 57.8197 82.8593V39.0867Z" fill="#231F20"/>
</svg>
